<?xml version="1.0" standalone="no"?>
<!DOCTYPE svg PUBLIC "-//W3C//DTD SVG 20010904//EN"
 "http://www.w3.org/TR/2001/REC-SVG-20010904/DTD/svg10.dtd">
<svg version="1.0" xmlns="http://www.w3.org/2000/svg"
 width="1020.000000pt" height="120.000000pt" viewBox="0 0 1020.000000 120.000000"
 preserveAspectRatio="xMidYMid meet">

<g transform="translate(0.000000,120.000000) scale(0.100000,-0.100000)"
fill="#000000" stroke="none">
<path d="M1162 1078 l3 -83 75 0 75 0 3 83 3 82 -81 0 -81 0 3 -82z"/>
<path d="M1437 1153 c-10 -9 -8 -135 2 -151 5 -9 29 -12 82 -10 l74 3 3 83 3
82 -79 0 c-43 0 -82 -3 -85 -7z"/>
<path d="M2655 1128 c-62 -21 -92 -38 -129 -75 -66 -66 -66 -67 -66 -449 0
-218 4 -345 10 -349 6 -3 10 -14 10 -24 0 -21 76 -102 110 -117 109 -49 191
-42 254 21 14 14 27 25 29 25 3 0 10 -13 17 -30 12 -30 13 -30 91 -30 l79 0 0
275 0 275 -150 0 -150 0 0 -75 c0 -68 2 -75 20 -75 27 0 34 -34 27 -131 -5
-82 -17 -109 -47 -109 -37 0 -41 33 -38 364 3 291 5 320 21 330 12 8 22 8 35
0 14 -9 17 -29 20 -113 l3 -101 129 0 130 0 0 99 c0 66 -5 111 -15 135 -20 46
-92 126 -114 126 -9 0 -21 4 -26 8 -33 29 -187 41 -250 20z"/>
<path d="M112 613 l3 -508 213 -3 213 -2 -3 102 -3 103 -75 5 -75 5 -3 403 -2
402 -135 0 -135 0 2 -507z"/>
<path d="M3160 610 l0 -511 128 3 127 3 5 339 c5 306 7 340 22 350 40 25 43 2
48 -352 l5 -337 123 -3 122 -3 0 370 c0 408 0 408 -65 448 -61 37 -185 38
-224 2 -11 -11 -22 -19 -25 -19 -3 0 -7 48 -8 108 l-3 107 -127 3 -128 3 0
-511z"/>
<path d="M7027 1113 c-4 -3 -7 -233 -7 -510 l0 -504 118 3 117 3 3 262 c1 147
6 263 11 263 5 0 12 -28 15 -62 5 -60 10 -100 36 -278 6 -41 14 -100 18 -130
l7 -55 87 -3 86 -3 6 58 c3 32 10 90 15 128 20 141 31 231 37 293 4 34 10 62
15 62 5 0 9 -120 9 -270 l0 -270 120 0 120 0 0 510 0 510 -177 -2 -178 -3 -7
-70 c-6 -67 -22 -193 -34 -282 -8 -57 -20 -54 -28 5 -4 26 -11 76 -16 112 -5
36 -12 92 -15 125 -4 33 -11 72 -17 88 l-10 27 -163 0 c-89 0 -165 -3 -168 -7z"/>
<path d="M9200 1050 l0 -70 130 0 130 0 0 70 0 70 -130 0 -130 0 0 -70z"/>
<path d="M795 943 c-100 -10 -195 -93 -195 -169 0 -13 -4 -26 -10 -29 -14 -9
-13 -429 2 -474 30 -95 43 -112 113 -151 35 -20 55 -23 157 -24 104 0 121 2
163 24 26 14 61 40 77 60 53 62 58 93 58 348 0 213 -2 236 -20 276 -23 49 -58
85 -111 114 -37 20 -156 33 -234 25z m103 -421 c2 -237 0 -273 -13 -278 -8 -4
-22 -1 -30 6 -13 10 -15 54 -15 269 0 264 3 286 40 279 13 -3 15 -41 18 -276z"/>
<path d="M1795 943 c-22 -2 -44 -9 -49 -14 -6 -5 -18 -9 -28 -9 -11 0 -40 -21
-66 -47 -46 -46 -48 -51 -60 -134 -25 -179 -10 -442 30 -526 24 -49 37 -62 93
-93 34 -19 55 -23 147 -23 93 -1 113 2 152 23 80 41 117 94 135 194 16 84 14
123 -5 130 -30 11 -190 6 -207 -6 -13 -10 -17 -33 -19 -97 -2 -68 -6 -86 -21
-95 -15 -9 -21 -6 -37 14 -18 23 -20 43 -20 268 0 252 3 272 42 272 20 0 38
-58 38 -123 l0 -57 114 0 c69 0 117 4 121 10 11 17 -15 151 -37 197 -21 42
-34 54 -100 91 -35 20 -150 33 -223 25z"/>
<path d="M4030 943 c-25 -2 -49 -8 -54 -14 -6 -5 -18 -9 -27 -9 -26 0 -109
-82 -109 -107 0 -12 -4 -25 -10 -28 -5 -3 -10 -42 -10 -86 l0 -79 120 0 120 0
0 78 c0 77 9 102 37 102 14 0 43 -62 43 -93 0 -11 -5 -34 -11 -51 -11 -29 -41
-49 -134 -86 -96 -39 -142 -68 -161 -105 -21 -41 -19 -249 4 -294 25 -51 73
-73 160 -74 65 0 75 2 100 26 35 33 42 34 42 2 l0 -26 123 3 122 3 -1 342 c-1
289 -3 347 -17 375 -16 34 -65 84 -103 105 -24 13 -165 23 -234 16z m110 -558
c0 -99 -12 -145 -40 -145 -31 0 -40 23 -40 99 0 64 3 79 26 108 44 57 54 46
54 -62z"/>
<path d="M4830 943 c-14 -3 -37 -14 -53 -25 -28 -20 -42 -18 -42 5 0 8 -39 13
-127 15 l-128 3 0 -421 0 -421 123 3 122 3 5 337 c5 354 8 377 48 352 15 -10
17 -42 20 -353 l2 -341 130 0 130 0 0 348 c0 382 -4 413 -57 462 -24 23 -42
30 -89 34 -33 2 -70 2 -84 -1z"/>
<path d="M5345 943 c-22 -2 -44 -9 -49 -14 -6 -5 -18 -9 -27 -9 -25 0 -109
-90 -109 -116 0 -13 -4 -26 -10 -29 -6 -4 -10 -100 -10 -255 0 -155 4 -251 10
-255 6 -3 10 -14 10 -24 0 -27 63 -94 114 -120 39 -21 60 -24 155 -24 97 -1
116 2 156 23 26 13 58 38 71 54 13 17 28 36 33 41 15 19 24 69 28 158 l4 87
-120 0 -121 0 0 -80 c0 -96 -18 -143 -53 -138 -18 2 -23 11 -28 53 -3 28 -5
84 -3 125 l3 75 161 3 161 3 -4 112 c-4 115 -10 153 -30 197 -16 35 -94 110
-116 110 -9 0 -21 4 -26 9 -12 11 -144 20 -200 14z m103 -155 c7 -7 12 -40 12
-80 l0 -68 -30 0 -30 0 0 73 c0 41 3 77 7 80 10 11 28 8 41 -5z"/>
<path d="M6151 943 c-14 -3 -41 -16 -60 -29 l-36 -24 -5 22 c-6 22 -10 23
-128 26 l-122 3 0 -421 0 -420 120 0 120 0 0 318 c0 270 2 324 16 350 17 34
35 40 53 19 7 -9 12 -122 13 -348 l3 -334 125 0 125 0 3 336 c2 282 5 339 17
349 8 7 21 10 28 7 29 -11 37 -94 37 -396 l0 -301 120 0 120 0 0 359 c0 395
-1 402 -61 455 -30 27 -39 30 -109 30 -63 1 -79 -3 -98 -20 -12 -11 -33 -27
-46 -34 -22 -11 -28 -9 -63 18 -29 24 -51 32 -93 36 -30 2 -66 2 -79 -1z"/>
<path d="M8765 943 c-76 -8 -165 -68 -165 -111 0 -11 -4 -24 -10 -27 -12 -8
-13 -159 -1 -183 5 -9 15 -30 22 -46 16 -35 128 -117 209 -153 18 -8 33 -21
60 -47 38 -38 21 -136 -23 -136 -25 0 -36 24 -39 90 l-3 65 -109 3 c-60 1
-114 -2 -119 -7 -6 -6 -4 -42 4 -98 13 -83 16 -91 56 -131 23 -23 51 -42 61
-42 10 0 23 -5 29 -11 7 -7 56 -11 127 -12 103 0 122 3 162 24 56 28 86 68
102 132 27 106 7 202 -53 262 -22 22 -75 58 -118 79 -116 57 -137 77 -137 135
0 49 13 71 41 71 14 0 19 -11 24 -47 3 -27 7 -55 8 -63 2 -12 22 -15 112 -15
l110 0 3 60 c2 34 -2 70 -9 85 -19 37 -81 100 -99 100 -9 0 -20 4 -25 9 -12
11 -161 21 -220 14z"/>
<path d="M9755 943 c-22 -2 -44 -9 -49 -14 -6 -5 -18 -9 -28 -9 -11 0 -40 -21
-66 -47 -44 -45 -48 -53 -60 -128 -26 -170 -10 -448 30 -532 24 -49 37 -62 93
-93 35 -20 55 -23 150 -23 99 0 115 3 155 25 61 34 116 108 124 167 20 139 20
148 -5 154 -43 12 -184 8 -202 -5 -13 -10 -17 -33 -19 -97 -2 -68 -6 -86 -21
-95 -15 -9 -21 -6 -37 14 -18 23 -20 43 -20 268 0 252 3 272 42 272 20 0 38
-58 38 -123 l0 -57 114 0 c63 0 117 4 121 9 10 17 -16 154 -37 198 -21 42 -34
54 -100 91 -35 20 -150 33 -223 25z"/>
<path d="M1240 520 l0 -420 130 0 130 0 0 420 0 420 -130 0 -130 0 0 -420z"/>
<path d="M7920 598 c0 -228 4 -353 11 -377 33 -104 62 -125 171 -125 66 0 81
4 101 22 29 27 43 28 50 2 5 -20 12 -20 129 -18 l123 3 0 415 0 415 -122 3
-123 3 0 -325 c0 -334 -4 -376 -40 -376 -39 0 -40 13 -40 362 l0 338 -130 0
-130 0 0 -342z"/>
<path d="M9200 520 l0 -420 130 0 130 0 0 420 0 420 -130 0 -130 0 0 -420z"/>
</g>
</svg>
